<?xml version="1.0" encoding="utf-8"?>
<!-- Generator: Adobe Illustrator 17.0.1, SVG Export Plug-In . SVG Version: 6.00 Build 0)  -->
<!DOCTYPE svg PUBLIC "-//W3C//DTD SVG 1.1//EN" "http://www.w3.org/Graphics/SVG/1.1/DTD/svg11.dtd">
<svg version="1.1" id="Layer_1" xmlns="http://www.w3.org/2000/svg" xmlns:xlink="http://www.w3.org/1999/xlink" x="0px" y="0px"
	 width="17.625px" height="17.5px" viewBox="0 0 17.625 17.5" enable-background="new 0 0 17.625 17.5" xml:space="preserve">
<g opacity="0.6">
	<path opacity="0.4" fill="#262626" enable-background="new    " d="M17.328,8.878c0,6.283-2.206,8.482-8.516,8.482
		c-6.309,0-8.516-2.199-8.516-8.482c0-6.282,2.207-8.481,8.516-8.481C15.122,0.397,17.328,2.596,17.328,8.878z"/>
	<path fill="#262626" d="M17.328,8.665c0,6.284-2.206,8.481-8.516,8.481c-6.309,0-8.516-2.197-8.516-8.481
		c0-6.283,2.207-8.481,8.516-8.481C15.122,0.185,17.328,2.382,17.328,8.665z"/>
	<path opacity="0.25" fill="#262626" enable-background="new    " d="M8.813,0.185c-6.309,0-8.516,2.198-8.516,8.481
		c0,6.284,2.207,8.481,8.516,8.481c6.31,0,8.516-2.199,8.516-8.481C17.328,2.382,15.122,0.185,8.813,0.185z M8.813,16.935
		c-6.207,0-8.302-2.087-8.302-8.269s2.095-8.268,8.302-8.268c6.209,0,8.303,2.087,8.303,8.268
		C17.116,14.848,15.022,16.935,8.813,16.935z"/>
</g>
<g opacity="0.85">
	<path opacity="0.4" fill="#429BF4" enable-background="new    " d="M16.783,8.872c0,5.934-2.083,8.01-8.043,8.01
		c-5.958,0-8.043-2.076-8.043-8.01s2.084-8.01,8.043-8.01C14.7,0.862,16.783,2.939,16.783,8.872z"/>
	<path fill="#429BF4" d="M16.783,8.672c0,5.933-2.083,8.01-8.043,8.01c-5.958,0-8.043-2.076-8.043-8.01s2.084-8.01,8.043-8.01
		C14.7,0.662,16.783,2.738,16.783,8.672z"/>
	<path opacity="0.25" fill="#429BF4" enable-background="new    " d="M8.74,0.662c-5.958,0-8.043,2.076-8.043,8.01
		c0,5.933,2.084,8.01,8.043,8.01c5.959,0,8.043-2.076,8.043-8.01C16.783,2.738,14.7,0.662,8.74,0.662z M8.74,16.481
		c-5.863,0-7.841-1.97-7.841-7.809S2.878,0.863,8.74,0.863c5.864,0,7.841,1.971,7.841,7.809
		C16.583,14.511,14.604,16.481,8.74,16.481z"/>
</g>
<g id="PLACE_YOUR_GRAPHIC_HERE" opacity="0.85">
	<g>
		<path opacity="0.15" enable-background="new    " d="M6.799,14.962c-0.534,0-0.985-0.267-1.343-0.797L2.118,9.858
			C1.79,9.44,1.892,8.849,2.348,8.544l1.244-0.833c0.176-0.119,0.385-0.183,0.602-0.183c0.331,0,0.642,0.147,0.833,0.393
			l1.762,2.242l5.376-7.05c0.187-0.253,0.504-0.406,0.842-0.406c0.21,0,0.413,0.059,0.585,0.17l1.262,0.808
			c0.461,0.297,0.576,0.885,0.257,1.311l-7.043,9.243C7.948,14.411,7.553,14.962,6.799,14.962z"/>
		<path fill="#FFFFFF" d="M14.578,4.074l-1.261-0.807c-0.233-0.148-0.554-0.095-0.713,0.12l-5.791,7.597L4.628,8.198
			c-0.164-0.21-0.485-0.26-0.713-0.106L2.671,8.925c-0.227,0.153-0.279,0.449-0.115,0.66l3.356,4.331
			c0.245,0.36,0.532,0.573,0.907,0.573c0.356,0,0.613-0.192,0.846-0.518l7.04-9.239C14.867,4.518,14.809,4.223,14.578,4.074z"/>
		<rect x="1.63" y="1.768" fill="none" width="14.194" height="14.135"/>
	</g>
</g>
</svg>
