<?xml version="1.0" encoding="utf-8"?>
<!-- Generator: Adobe Illustrator 17.0.1, SVG Export Plug-In . SVG Version: 6.00 Build 0)  -->
<!DOCTYPE svg PUBLIC "-//W3C//DTD SVG 1.1//EN" "http://www.w3.org/Graphics/SVG/1.1/DTD/svg11.dtd">
<svg version="1.1"
	 id="Layer_1" sodipodi:docname="StatusPage.svg" inkscape:version="0.48.4 r9939" xmlns:dc="http://purl.org/dc/elements/1.1/" xmlns:cc="http://creativecommons.org/ns#" xmlns:rdf="http://www.w3.org/1999/02/22-rdf-syntax-ns#" xmlns:svg="http://www.w3.org/2000/svg" xmlns:sodipodi="http://sodipodi.sourceforge.net/DTD/sodipodi-0.dtd" xmlns:inkscape="http://www.inkscape.org/namespaces/inkscape"
	 xmlns="http://www.w3.org/2000/svg" xmlns:xlink="http://www.w3.org/1999/xlink" x="0px" y="0px" width="96px" height="96px"
	 viewBox="0 0 96 96" enable-background="new 0 0 96 96" xml:space="preserve">
<sodipodi:namedview  inkscape:pageopacity="0" pagecolor="#ffffff" bordercolor="#666666" borderopacity="1" objecttolerance="10" gridtolerance="10" guidetolerance="10" id="namedview3145" showgrid="false" inkscape:zoom="6.1554362" inkscape:cx="47.694724" inkscape:cy="58.544247" inkscape:pageshadow="2" inkscape:window-y="-8" inkscape:window-x="-8" inkscape:window-width="1440" inkscape:current-layer="Layer_1" inkscape:window-maximized="1" inkscape:window-height="838">
	</sodipodi:namedview>
<rect id="rect3134" fill="none" width="96" height="96"/>
<path id="path3138" fill-opacity="0.4" d="M88,48.545c0,29.634-10.363,40-40,40c-29.634,0-40-10.366-40-40c0-29.635,10.366-40,40-40
	C77.637,8.545,88,18.91,88,48.545z"/>
<linearGradient id="path3152_1_" gradientUnits="userSpaceOnUse" x1="175.0451" y1="1171.62" x2="175.0451" y2="1250.86" gradientTransform="matrix(1 0 0 1 -127.0451 -1163.3652)">
	<stop  offset="0" style="stop-color:#FFFFFF"/>
	<stop  offset="1" style="stop-color:#FFFFFF;stop-opacity:0"/>
</linearGradient>
<path id="path3152" fill="url(#path3152_1_)" fill-opacity="0.25" d="M48,8C18.366,8,8,18.365,8,48c0,29.634,10.366,40,40,40
	c29.637,0,40-10.366,40-40C88,18.365,77.637,8,48,8z M48,87C18.842,87,9,77.158,9,48S18.842,9,48,9s39,9.842,39,39S77.158,87,48,87z
	"/>
<g>
	
		<linearGradient id="path3145_1_" gradientUnits="userSpaceOnUse" x1="349.32" y1="-703.0654" x2="349.32" y2="-628.2255" gradientTransform="matrix(1 0 0 -1 -301.32 -605.92)">
		<stop  offset="0" style="stop-color:#00669B"/>
		<stop  offset="1" style="stop-color:#5BCBF5"/>
	</linearGradient>
	<path id="path3145" fill="url(#path3145_1_)" d="M88,48.545c0,29.634-10.363,40-40,40c-29.634,0-40-10.366-40-40
		c0-29.635,10.366-40,40-40C77.637,8.545,88,18.91,88,48.545z"/>
	<g>
		<path id="path3310" inkscape:connector-curvature="0" opacity="0.15" enable-background="new    " d="M31.193,81.5
			c-1.281,0-2.606-0.898-3.082-2.089l-1.686-4.209c-0.338-0.846-0.592-2.171-0.592-3.082V23.88c0-0.911,0.255-2.236,0.592-3.082
			l1.686-4.212c0.476-1.189,1.801-2.086,3.082-2.086h32.16c1.281,0,2.606,0.898,3.082,2.088l1.687,4.21
			c0.338,0.846,0.591,2.171,0.591,3.082v48.24c0,0.911-0.253,2.236-0.591,3.082l-1.687,4.212c-0.476,1.189-1.801,2.086-3.082,2.086
			H31.193z M38.563,73.46c-0.369,0-0.67,0.301-0.67,0.67c0,0.369,0.301,0.67,0.67,0.67h17.42c0.368,0,0.67-0.301,0.67-0.67
			c0-0.368-0.302-0.67-0.67-0.67H38.563z M62.013,66.76V25.22h-29.48v41.54H62.013z"/>
		<path id="path3312" inkscape:connector-curvature="0" opacity="0.3" enable-background="new    " d="M66.876,22.635l-1.686-4.212
			c-0.273-0.683-1.1-1.244-1.837-1.244h-32.16c-0.737,0-1.564,0.56-1.837,1.245l-1.686,4.212c-0.273,0.683-0.497,1.847-0.497,2.584
			v48.24c0,0.737,0.224,1.9,0.497,2.586l1.686,4.216c0.273,0.678,1.1,1.238,1.837,1.238h32.16c0.737,0,1.564-0.56,1.837-1.246
			l1.686-4.216c0.273-0.678,0.497-1.841,0.497-2.578V25.22C67.373,24.483,67.15,23.32,66.876,22.635z M55.983,77.48h-17.42
			c-1.11,0-2.01-0.9-2.01-2.01c0-1.11,0.9-2.01,2.01-2.01h17.42c1.11,0,2.01,0.9,2.01,2.01C57.993,76.58,57.093,77.48,55.983,77.48z
			 M63.353,69.44h-32.16V25.22h32.16V69.44z"/>
		
			<linearGradient id="path3323_1_" gradientUnits="userSpaceOnUse" x1="584.0138" y1="-3188.1416" x2="584.0138" y2="-3123.8215" gradientTransform="matrix(1 0 0 -1 -536.7404 -3107.9817)">
			<stop  offset="0" style="stop-color:#D0CBC5"/>
			<stop  offset="0.5031" style="stop-color:#FAFCEF"/>
			<stop  offset="0.9693" style="stop-color:#FFFFFF"/>
			<stop  offset="1" style="stop-color:#FFFFFF"/>
		</linearGradient>
		<path id="path3323" inkscape:connector-curvature="0" fill="url(#path3323_1_)" d="M66.876,21.295l-1.686-4.212
			c-0.273-0.683-1.1-1.244-1.837-1.244h-32.16c-0.737,0-1.564,0.56-1.837,1.245l-1.686,4.212c-0.273,0.683-0.497,1.847-0.497,2.584
			v48.24c0,0.737,0.224,1.9,0.497,2.586l1.686,4.216c0.273,0.678,1.1,1.238,1.837,1.238h32.16c0.737,0,1.564-0.56,1.837-1.246
			l1.686-4.216c0.273-0.678,0.497-1.841,0.497-2.578V23.88C67.373,23.143,67.15,21.98,66.876,21.295z M55.983,76.14h-17.42
			c-1.11,0-2.01-0.9-2.01-2.01c0-1.11,0.9-2.01,2.01-2.01h17.42c1.11,0,2.01,0.9,2.01,2.01C57.993,75.24,57.093,76.14,55.983,76.14z
			 M63.353,68.1h-32.16V23.88h32.16V68.1z"/>
		<path id="path3325" inkscape:connector-curvature="0" fill="#FFFFFF" d="M31.193,69.44h32.16V68.1h-32.16V69.44z M55.983,76.14
			h-17.42c-0.874,0-1.609-0.561-1.887-1.34c-0.075,0.21-0.123,0.434-0.123,0.67c0,1.11,0.9,2.01,2.01,2.01h17.42
			c1.11,0,2.01-0.9,2.01-2.01c0-0.236-0.048-0.46-0.123-0.67C57.593,75.579,56.857,76.14,55.983,76.14z M66.876,21.295l-1.686-4.212
			c-0.273-0.683-1.1-1.244-1.837-1.244h-32.16c-0.737,0-1.564,0.56-1.837,1.245l-1.686,4.212c-0.273,0.683-0.497,1.847-0.497,2.584
			v1.34c0-0.737,0.224-1.9,0.497-2.585l1.686-4.212c0.273-0.683,1.1-1.244,1.837-1.244h32.16c0.737,0,1.564,0.56,1.837,1.245
			l1.686,4.212c0.273,0.683,0.497,1.847,0.497,2.584v-1.34C67.373,23.143,67.15,21.98,66.876,21.295z"/>
	</g>
</g>
<g id="g3348" transform="translate(90.130556,23.148959)" display="none">
	<path id="path3350" inkscape:connector-curvature="0" display="inline" opacity="0.15" enable-background="new    " d="
		M29.066,17.278c-0.105,0-0.207,0.02-0.299,0.062c-0.085,0.037-0.166,0.09-0.233,0.158c-0.072,0.071-0.126,0.152-0.164,0.242
		c-0.012,0.029-0.02,0.055-0.025,0.078l0,0l-1.083,3.247h-2.93c-0.101,0-0.203,0.02-0.295,0.059
		c-0.093,0.04-0.173,0.095-0.242,0.165c-0.065,0.064-0.121,0.147-0.159,0.24c-0.037,0.084-0.057,0.184-0.057,0.29
		s0.021,0.207,0.061,0.299c0.035,0.084,0.092,0.169,0.164,0.239c0.03,0.031,0.064,0.054,0.089,0.07l0.002,0.006l2.347,1.689
		l-1.035,3.105c-0.034,0.088-0.051,0.18-0.051,0.272c0,0.098,0.02,0.195,0.058,0.289c0.039,0.092,0.095,0.176,0.165,0.244
		c0.069,0.07,0.149,0.123,0.237,0.161c0.087,0.038,0.19,0.061,0.294,0.061c0.106,0,0.207-0.022,0.3-0.063
		c0.055-0.023,0.098-0.056,0.118-0.071l0.004,0.004l2.735-1.968l2.735,1.968l0.004-0.004c0.022,0.018,0.061,0.047,0.114,0.071
		c0.099,0.042,0.198,0.063,0.303,0.063s0.205-0.021,0.298-0.063c0.085-0.036,0.164-0.089,0.232-0.156
		c0.068-0.067,0.126-0.152,0.165-0.244s0.059-0.19,0.059-0.291c0-0.094-0.017-0.186-0.051-0.274l-1.034-3.104l2.346-1.689
		l0.003-0.007c0.021-0.013,0.048-0.031,0.077-0.057l0.018-0.018c0.068-0.068,0.123-0.15,0.161-0.238
		c0.039-0.092,0.06-0.191,0.06-0.295c0-0.103-0.021-0.202-0.06-0.294c-0.037-0.088-0.091-0.168-0.159-0.238
		c-0.072-0.07-0.152-0.124-0.24-0.162c-0.094-0.039-0.193-0.059-0.292-0.059h-2.929l-1.083-3.247l-0.001-0.001
		c-0.005-0.021-0.013-0.046-0.023-0.073c-0.042-0.097-0.096-0.177-0.164-0.245c-0.068-0.068-0.148-0.123-0.239-0.161
		C29.271,17.298,29.17,17.278,29.066,17.278L29.066,17.278z"/>
</g>
<g id="g3366" transform="translate(90.130556,23.148959)" display="none">
	<path id="path3368" inkscape:connector-curvature="0" display="inline" opacity="0.3" enable-background="new    " d="
		M34.091,22.134c-0.016-0.038-0.039-0.072-0.067-0.1c-0.023-0.029-0.063-0.052-0.101-0.067c-0.037-0.016-0.08-0.024-0.123-0.024
		h-3.245l-1.182-3.547h-0.006c-0.005-0.016-0.004-0.033-0.009-0.048c-0.017-0.037-0.04-0.072-0.068-0.1
		c-0.028-0.029-0.063-0.051-0.101-0.068c-0.037-0.016-0.079-0.024-0.123-0.024c-0.044,0-0.084,0.008-0.122,0.024
		c-0.038,0.017-0.072,0.04-0.102,0.068c-0.028,0.028-0.052,0.063-0.067,0.1c-0.006,0.016-0.005,0.032-0.009,0.048H28.76
		l-1.182,3.547h-3.247c-0.042,0-0.084,0.008-0.122,0.024s-0.072,0.039-0.101,0.067s-0.052,0.063-0.067,0.1
		c-0.017,0.039-0.024,0.08-0.024,0.124c0,0.043,0.007,0.084,0.024,0.123c0.016,0.037,0.039,0.072,0.067,0.1
		c0.012,0.012,0.029,0.02,0.044,0.029l-0.003,0.006l2.608,1.878l-1.142,3.421c-0.015,0.038-0.024,0.08-0.024,0.124
		c0,0.043,0.009,0.085,0.024,0.122c0.016,0.038,0.04,0.072,0.068,0.1s0.062,0.052,0.1,0.068c0.037,0.016,0.08,0.025,0.123,0.025
		c0.044,0,0.086-0.01,0.123-0.025c0.017-0.008,0.03-0.021,0.045-0.029l-0.002,0.008l2.991-2.153l0,0l0,0l2.991,2.153L32.051,28.2
		c0.016,0.008,0.027,0.022,0.044,0.029c0.038,0.016,0.08,0.025,0.124,0.025s0.085-0.01,0.123-0.025
		c0.038-0.017,0.071-0.04,0.1-0.068c0.029-0.027,0.052-0.063,0.068-0.1c0.016-0.037,0.025-0.079,0.025-0.122
		c0-0.044-0.009-0.085-0.025-0.124l-1.141-3.421l2.608-1.878l-0.002-0.006c0.015-0.009,0.031-0.018,0.044-0.029
		c0.023-0.028,0.053-0.063,0.063-0.1c0.021-0.039,0.021-0.08,0.021-0.123C34.115,22.214,34.107,22.172,34.091,22.134z"/>
</g>
<g>
	<path fill-opacity="0.3" d="M39.273,57.66h16l1-19h-18L39.273,57.66z M50.273,42.66c0-0.553,0.447-1,1-1s1,0.447,1,1v10
		c0,0.553-0.447,1-1,1s-1-0.447-1-1V42.66z M46.273,42.66c0-0.553,0.447-1,1-1s1,0.447,1,1v10c0,0.553-0.447,1-1,1s-1-0.447-1-1
		V42.66z M42.273,42.66c0-0.553,0.447-1,1-1s1,0.447,1,1v10c0,0.553-0.447,1-1,1s-1-0.447-1-1V42.66z M56.273,34.66h-5.5v-1
		c0-0.826-0.673-1.5-1.5-1.5h-4c-0.827,0-1.5,0.674-1.5,1.5v1h-5.5c-0.553,0-1,0.448-1,1v1h20v-1
		C57.273,35.108,56.824,34.66,56.273,34.66z M49.273,34.66h-4v-1h4V34.66z"/>
	<path fill-opacity="0.15" d="M56.273,34.66h-4.5c0-1.379-1.121-2.5-2.5-2.5h-4c-1.379,0-2.5,1.121-2.5,2.5h-4.5
		c-1.103,0-2,0.897-2,2v1c0,0.553,0.447,1,1,1h1c-0.274,0-0.537,0.112-0.726,0.312c-0.189,0.2-0.287,0.466-0.273,0.741l1,19
		c0.028,0.531,0.467,0.947,0.999,0.947h16c0.532,0,0.971-0.416,0.999-0.947l1-19c0.014-0.274-0.085-0.542-0.273-0.741
		c-0.188-0.199-0.452-0.312-0.726-0.312h1c0.553,0,1-0.447,1-1v-1C58.273,35.557,57.376,34.66,56.273,34.66z"/>
	<path fill="#FFFFFF" d="M39.273,58.66h16l1-19h-18L39.273,58.66z M50.273,43.66c0-0.553,0.447-1,1-1s1,0.447,1,1v10
		c0,0.553-0.447,1-1,1s-1-0.447-1-1V43.66z M46.273,43.66c0-0.553,0.447-1,1-1s1,0.447,1,1v10c0,0.553-0.447,1-1,1s-1-0.447-1-1
		V43.66z M42.273,43.66c0-0.553,0.447-1,1-1s1,0.447,1,1v10c0,0.553-0.447,1-1,1s-1-0.447-1-1V43.66z M56.273,35.66h-5.5v-1
		c0-0.826-0.673-1.5-1.5-1.5h-4c-0.827,0-1.5,0.674-1.5,1.5v1h-5.5c-0.553,0-1,0.448-1,1v1h20v-1
		C57.273,36.108,56.824,35.66,56.273,35.66z M49.273,35.66h-4v-1h4V35.66z"/>
	<path fill="none" d="M62.273,61.66"/>
	<path fill="none" d="M62.273,31.66"/>
	<path fill="none" d="M32.273,61.66"/>
</g>
</svg>
